<svg xmlns:xlink="http://www.w3.org/1999/xlink" width="100" height="32" viewBox="0 0 100 32" fill="none" xmlns="http://www.w3.org/2000/svg">
    <path d="M18.7435 9.31877C18.7409 9.76361 18.3325 10.0782 17.891 10.0317C16.7967 9.91635 15.794 9.92594 14.8567 10.0237C12.8163 10.2366 11.1207 10.8668 9.55748 11.4479L9.55405 11.4491C9.45946 11.4843 9.36535 11.5193 9.27168 11.554C7.61179 12.1687 6.08228 12.6976 4.26761 12.7395C3.54371 12.7563 2.76383 12.6953 1.90505 12.5223C1.1685 12.3739 0.580043 11.8109 0.434096 11.0723C0.318449 10.4871 0.257812 9.88202 0.257812 9.26277C0.257812 4.14708 4.39601 0 9.50074 0C14.6055 0 18.7437 4.14708 18.7437 9.26277C18.7437 9.28145 18.7436 9.30012 18.7435 9.31877Z" fill="url(&quot;#paint0_radial_4194_88791&quot;)"></path>
    <path d="M1.08118 13.9219C0.387094 13.7548 -0.24631 14.5022 0.0955106 15.1302L9.16816 31.7991C9.31413 32.0673 9.69839 32.0673 9.84436 31.7991L19.8582 13.4011C20.2133 12.7485 19.8716 11.9311 19.1443 11.7855C17.5619 11.4687 16.2137 11.4346 15.0137 11.5598C13.1726 11.7519 11.6435 12.3196 10.0561 12.9088C9.97201 12.9401 9.88775 12.9713 9.80327 13.0026C8.14148 13.6181 6.39746 14.235 4.30073 14.2835C3.30417 14.3066 2.24268 14.2015 1.08118 13.9219Z" fill="url(&quot;#paint1_linear_4194_88791&quot;)"></path>
    <path d="M9.50391 13.4357C9.50391 13.2424 9.62439 13.0696 9.80535 13.0026C9.88983 12.9713 9.97409 12.9401 10.0582 12.9088C11.6456 12.3196 13.1747 11.7519 15.0158 11.5598C16.2158 11.4346 17.564 11.4687 19.1463 11.7855C19.8737 11.9311 20.2154 12.7485 19.8602 13.4011L9.84643 31.7991C9.77264 31.9347 9.63793 32.0017 9.50391 32.0002V13.4357Z" fill="url(&quot;#paint2_linear_4194_88791&quot;)"></path>
    <path fill-rule="evenodd" clip-rule="evenodd" d="M38.6599 8.06824C37.7716 7.81441 36.9469 7.6875 36.1218 7.6875C34.599 7.6875 33.2032 8.06824 31.9342 8.70276C30.6651 9.40072 29.7133 10.3525 29.0153 11.6216C28.3173 12.8906 28 14.2866 28 15.9363C28 17.5861 28.3808 18.982 29.0788 20.2511C29.7765 21.5201 30.7918 22.4719 31.9974 23.1699C33.2032 23.8679 34.5355 24.2486 36.0586 24.2486C37.4543 24.2486 38.7234 23.9948 39.8657 23.3603C41.0077 22.7892 41.896 21.9009 42.5941 20.6952C43.2921 19.4896 43.6094 18.0937 43.6094 16.4439V15.746C43.6094 15.6574 43.6094 15.555 43.6095 15.4453L43.6096 15.3137C43.6097 15.167 43.4907 15.048 43.3439 15.048H36.7672C36.6204 15.048 36.5015 15.167 36.5015 15.3137V17.6376C36.5015 17.7844 36.6204 17.9034 36.7672 17.9034H39.7689C39.8772 17.9034 39.9603 17.9997 39.9408 18.1061C39.8779 18.4488 39.7894 18.76 39.6752 19.0455C39.4214 19.7435 38.9771 20.1876 38.3426 20.5683C37.7716 20.8856 37.0104 21.076 36.0586 21.076C35.297 21.076 34.5355 20.8222 33.9009 20.4415C33.2032 19.9973 32.6954 19.4262 32.3146 18.6648C31.9342 17.9034 31.7436 17.015 31.7436 15.9998C31.7436 14.9845 31.9342 14.0962 32.3146 13.3348C32.6954 12.5733 33.2032 11.9388 33.9009 11.5581C34.599 11.1139 35.3605 10.9236 36.1853 10.9236C36.9469 10.9236 37.7081 11.1139 38.3426 11.4312C38.9066 11.7132 39.4206 12.1957 39.8397 12.7896C39.9263 12.9122 40.0951 12.9475 40.2191 12.863L42.5797 11.2534C42.695 11.1749 42.7304 11.0201 42.6545 10.9031C42.2208 10.2346 41.6403 9.67039 41.0077 9.21037C40.2462 8.70276 39.5485 8.32202 38.6599 8.06824ZM58.9832 8.58194L61.8148 7.83616C61.9833 7.79178 62.1482 7.91887 62.1482 8.09313V23.729C62.1482 23.8758 62.0292 23.9947 61.8824 23.9947H59.0509C58.9042 23.9947 58.7852 23.8758 58.7852 23.729V8.83891C58.7852 8.71822 58.8665 8.61268 58.9832 8.58194ZM92.3857 15.1748C92.8299 14.921 93.274 14.7941 93.7817 14.7941C94.3527 14.7941 94.7969 14.9845 95.1776 15.1748C95.5583 15.3652 95.8756 15.7459 96.1294 16.2535C96.3832 16.7611 96.5101 17.3322 96.5101 18.0302C96.5101 18.7282 96.3832 19.2992 96.1294 19.8069C95.939 20.3145 95.6218 20.6952 95.1776 20.949C94.7969 21.2028 94.2893 21.3297 93.7817 21.3297C93.274 21.3297 92.7664 21.2028 92.3857 20.949C92.005 20.6952 91.6877 20.3145 91.4339 19.8069C91.1801 19.2992 91.0532 18.7282 91.0532 18.0302C91.0532 17.3322 91.1801 16.7611 91.4339 16.2535C91.6243 15.8094 91.9415 15.4286 92.3857 15.1748ZM96.9543 12.5733C96.0659 12.0657 94.9872 11.8119 93.7817 11.8119C92.6395 11.8119 91.5608 12.0657 90.609 12.5733C89.6572 13.0809 88.9593 13.8423 88.3882 14.7941C87.8171 15.7459 87.5633 16.8246 87.5633 18.0302C87.5633 19.2358 87.8806 20.3145 88.3882 21.2663C88.8958 22.2181 89.6572 22.9795 90.609 23.4871C91.5608 23.9947 92.6395 24.2485 93.7817 24.2485C94.9238 24.2485 96.0025 23.9947 96.9543 23.4871C97.9061 22.9795 98.604 22.2181 99.1751 21.2663C99.7462 20.3145 100 19.2358 100 18.0302C100 16.8246 99.6827 15.7459 99.1751 14.7941C98.6675 13.8423 97.9061 13.0809 96.9543 12.5733ZM72.9375 22.7852C72.9626 22.745 73.0355 22.7635 73.0355 22.8109V23.7291C73.0355 23.8759 73.1545 23.9948 73.3012 23.9948H76.1326C76.2794 23.9948 76.3984 23.8759 76.3984 23.7291V12.4584C76.3984 12.3117 76.2794 12.1927 76.1326 12.1927H73.3012C73.1545 12.1927 73.0355 12.3117 73.0355 12.4584V13.4797C73.0355 13.567 72.92 13.6035 72.8668 13.5344C72.6888 13.3027 72.4905 13.0875 72.274 12.8907C71.5761 12.1927 70.6243 11.8754 69.4821 11.8754C68.467 11.8754 67.5785 12.1293 66.7536 12.7004C65.9922 13.208 65.3577 13.9694 64.9136 14.9212C64.4694 15.873 64.2791 16.9516 64.2791 18.0938C64.2791 19.2359 64.4694 20.3146 64.9136 21.2664C65.3577 22.2182 65.9289 22.9162 66.7536 23.4873C67.5152 24.0583 68.467 24.3121 69.4821 24.3121C70.6878 24.3121 71.5761 23.9314 72.3375 23.4238C72.6281 23.2301 72.8283 22.9601 72.9375 22.7852ZM71.7665 20.8857C71.3223 21.1395 70.878 21.2664 70.3704 21.2664C69.8629 21.2664 69.4188 21.1395 68.9745 20.8857C68.5938 20.6319 68.2766 20.2512 68.0227 19.7436C67.8325 19.2359 67.7054 18.6649 67.7054 18.0303C67.7054 17.3958 67.7689 16.8882 68.0227 16.3805C68.2766 15.9364 68.5938 15.5557 68.9745 15.3019C69.4188 15.0481 69.8629 14.9212 70.3704 14.9212C70.878 14.9212 71.3857 15.0481 71.7665 15.3019C72.1471 15.5557 72.4644 15.8729 72.7183 16.3805C72.9086 16.8247 73.0355 17.3958 73.0355 18.0303C73.0355 18.6649 72.972 19.2359 72.7183 19.7436C72.4644 20.2512 72.1471 20.6319 71.7665 20.8857ZM83.7825 14.7942C83.7335 14.7942 83.6939 14.8338 83.6939 14.8828V19.4262C83.6939 20.5049 84.138 21.0759 85.0264 21.0759H86.0298C86.1765 21.0759 86.2955 21.1949 86.2955 21.3417V23.729C86.2955 23.8758 86.1765 23.9948 86.0298 23.9948H84.5823C83.2497 23.9948 82.1711 23.614 81.4731 22.8526C80.7117 22.0912 80.3309 21.0125 80.3309 19.6165V14.8828C80.3309 14.8338 80.2912 14.7942 80.2423 14.7942H78.279C78.0969 14.7942 77.9688 14.6152 78.0275 14.4428L78.7323 12.3727C78.7689 12.265 78.8701 12.1926 78.9838 12.1926H80.2423C80.2912 12.1926 80.3309 12.1529 80.3309 12.104V8.92752C80.3309 8.80683 80.4122 8.70129 80.5289 8.67055L83.4716 7.8955C83.584 7.86591 83.6939 7.95064 83.6939 8.06681V12.104C83.6939 12.1529 83.7335 12.1926 83.7825 12.1926H86.1015C86.2836 12.1926 86.4117 12.3716 86.353 12.544L85.6482 14.6141C85.6115 14.7218 85.5104 14.7942 85.3967 14.7942H83.7825ZM51.0699 11.8119C52.2119 11.8119 53.1637 12.0657 53.9886 12.5733C54.8135 13.0809 55.5114 13.8423 55.9555 14.7941C56.4632 15.7459 56.6535 16.8246 56.6535 18.0302V18.5894C56.6535 18.7361 56.5346 18.8551 56.3878 18.8551H48.8573C48.7499 18.8551 48.6669 18.95 48.6854 19.0559C48.7408 19.3735 48.819 19.6524 48.9122 19.8703C49.1663 20.3779 49.4835 20.7587 49.864 20.949C50.2448 21.1394 50.7526 21.3297 51.3871 21.3297C51.9581 21.3297 52.5291 21.2028 52.9099 21.0125C53.277 20.8551 53.6006 20.5678 53.881 20.2221C53.9775 20.1032 54.1524 20.0787 54.2713 20.1751L56.201 21.7396C56.312 21.8296 56.3325 21.9917 56.242 22.1023C55.7011 22.7637 55.0506 23.2676 54.2423 23.614C53.3541 23.9947 52.4021 24.1851 51.3871 24.1851C50.1813 24.1851 49.1028 23.9313 48.151 23.4236C47.1992 22.916 46.5012 22.1546 45.9937 21.2028C45.4859 20.251 45.2321 19.1724 45.2321 17.9667C45.2321 16.7611 45.4859 15.6825 45.9937 14.7307C46.5012 13.7789 47.1992 13.0809 48.0875 12.5099C48.9757 12.0657 49.9275 11.8119 51.0699 11.8119ZM48.9321 16.6343C48.8203 16.6343 48.7363 16.5319 48.7627 16.4234C48.8741 15.9669 49.0355 15.5931 49.2295 15.3017C49.6103 14.7306 50.2448 14.4134 51.0699 14.4134C51.8311 14.4134 52.4656 14.7306 52.8464 15.3017C53.0361 15.5863 53.1941 15.9653 53.3052 16.4231C53.3315 16.5318 53.2475 16.6343 53.1356 16.6343H48.9321Z" fill="#EFE0E0"></path>
    <defs>
        <radialGradient id="paint0_radial_4194_88791" cx="0" cy="0" r="1" gradientUnits="userSpaceOnUse" gradientTransform="translate(15.1047 2.70164) rotate(149.79) scale(16.0944 19.3041)">
            <stop offset="0.116813" stop-color="#FFF7F7"></stop>
            <stop offset="0.734375" stop-color="#8F7D7D"></stop>
            <stop offset="1" stop-color="#9D8E8E"></stop>
        </radialGradient>
        <linearGradient id="paint1_linear_4194_88791" x1="9.99978" y1="11.9808" x2="9.99978" y2="32.0002" gradientUnits="userSpaceOnUse">
            <stop stop-color="#917F7F"></stop>
            <stop offset="0.46875" stop-color="#907E7E"></stop>
            <stop offset="1" stop-color="#968484"></stop>
        </linearGradient>
        <linearGradient id="paint2_linear_4194_88791" x1="14.7528" y1="11.4922" x2="14.7528" y2="33.3336" gradientUnits="userSpaceOnUse">
            <stop stop-color="#F1ECEC"></stop>
            <stop offset="0.197917" stop-color="#EFE0E0"></stop>
            <stop offset="1" stop-color="#A99E9E"></stop>
        </linearGradient>
    <radialGradient id="paint0_radial_4194_88791" cx="0" cy="0" r="1" gradientUnits="userSpaceOnUse" gradientTransform="translate(15.1047 2.70164) rotate(149.79) scale(16.0944 19.3041)">
            <stop offset="0.116813" stop-color="#FFF7F7"></stop>
            <stop offset="0.734375" stop-color="#8F7D7D"></stop>
            <stop offset="1" stop-color="#9D8E8E"></stop>
        </radialGradient><linearGradient id="paint1_linear_4194_88791" x1="9.99978" y1="11.9808" x2="9.99978" y2="32.0002" gradientUnits="userSpaceOnUse">
            <stop stop-color="#917F7F"></stop>
            <stop offset="0.46875" stop-color="#907E7E"></stop>
            <stop offset="1" stop-color="#968484"></stop>
        </linearGradient><linearGradient id="paint2_linear_4194_88791" x1="14.7528" y1="11.4922" x2="14.7528" y2="33.3336" gradientUnits="userSpaceOnUse">
            <stop stop-color="#F1ECEC"></stop>
            <stop offset="0.197917" stop-color="#EFE0E0"></stop>
            <stop offset="1" stop-color="#A99E9E"></stop>
        </linearGradient></defs>
</svg>